<?xml version="1.0" standalone="no"?><!DOCTYPE svg PUBLIC "-//W3C//DTD SVG 1.1//EN" "http://www.w3.org/Graphics/SVG/1.1/DTD/svg11.dtd"><svg t="1733121885531" class="icon" viewBox="0 0 1024 1024" version="1.1" xmlns="http://www.w3.org/2000/svg" p-id="5154" xmlns:xlink="http://www.w3.org/1999/xlink" width="40" height="40"><path d="M491.52 122.88h30.72c164.00384 0 296.96 132.95616 296.96 296.96v215.04a81.92 81.92 0 0 1-81.92 81.92H204.8a10.24 10.24 0 0 1-10.24-10.24V419.84c0-164.00384 132.95616-296.96 296.96-296.96z" fill="#1afa29" p-id="5155" data-spm-anchor-id="a313x.search_index.0.i8.444a3a81KzIRVQ" class="selected"></path><path d="M143.36 532.48m71.68 0l532.48 0q71.68 0 71.68 71.68l0 40.96q0 71.68-71.68 71.68l-532.48 0q-71.68 0-71.68-71.68l0-40.96q0-71.68 71.68-71.68Z" fill="#ABE4FE" p-id="5156"></path><path d="M686.08 399.36m10.24 0l112.64 0q10.24 0 10.24 10.24l0 327.68q0 10.24-10.24 10.24l-112.64 0q-10.24 0-10.24-10.24l0-327.68q0-10.24 10.24-10.24Z" fill="#1afa29" p-id="5157" data-spm-anchor-id="a313x.search_index.0.i9.444a3a81KzIRVQ" class="selected"></path><path d="M686.08 399.36m15.36 0l0 0q15.36 0 15.36 15.36l0 286.72q0 15.36-15.36 15.36l0 0q-15.36 0-15.36-15.36l0-286.72q0-15.36 15.36-15.36Z" fill="#1afa29" p-id="5158" data-spm-anchor-id="a313x.search_index.0.i10.444a3a81KzIRVQ" class="selected"></path><path d="M757.76 778.24m-112.64 0a112.64 112.64 0 1 0 225.28 0 112.64 112.64 0 1 0-225.28 0Z" fill="#ABE4FE" p-id="5159"></path></svg>